# xmcd
#
# Track frame offsets:
#	150
#	20689
#	33762
#	46010
#	58426
#	70657
#	81176
#	91741
#	106147
#	122733
#	134731
#	155031
#	173930
#	194985
#	209592
#	227216
#	245082
#	256669
#	268576
#	281025
#
# Disc length: 3980
#
# Revision: 1
# Processed by: cddbd v1.5.1PL0 Copyright (c) Steve Scherf et al.
# Submitted via: CDex 1.50
# Normalized: r0:DSETVAR1,TDELIM( - )
#
DISCID=2d0f8a14
DTITLE=Various Artist - Encadenados por la música
DYEAR=2003
DGENRE=Blues
TTITLE0=Barry White - You´re the first, the last, my everything
TTITLE1=Percy Sledge - When a man loves a woman
TTITLE2=The Temptations - My girl
TTITLE3=Neil Sedaka - Laughter in the rain
TTITLE4=Sam Cooke - You send me
TTITLE5=Everly Brothers - All I have to do is dream
TTITLE6=Frankie Avalon - Venus
TTITLE7=Sonny and Cher - I got you babe
TTITLE8=Righteous Brothers - You lost that loving feeling
TTITLE9=The Platters - Smoke gets in your eyes
TTITLE10=James Taylor - You´ve got a friend
TTITLE11=Dionne Warwick - Unchained melody
TTITLE12=Bill Paul - Me and Mrs. Jones
TTITLE13=Al Green - Let´s stay together
TTITLE14=Aretha Franklin - Call me
TTITLE15=Bobby Goldboro - Honey
TTITLE16=The Four Seasons - Sherry
TTITLE17=Connie Francis - Where the boys are
TTITLE18=Bobby Heb - Sunny
TTITLE19=Air Supply - All out of loe
EXTD=YEAR: 2003
EXTT0=
EXTT1=
EXTT2=
EXTT3=
EXTT4=
EXTT5=
EXTT6=
EXTT7=
EXTT8=
EXTT9=
EXTT10=
EXTT11=
EXTT12=
EXTT13=
EXTT14=
EXTT15=
EXTT16=
EXTT17=
EXTT18=
EXTT19=
PLAYORDER=
